<?xml version="1.0" encoding="UTF-8" standalone="no"?>
<!DOCTYPE svg PUBLIC "-//W3C//DTD SVG 1.1//EN"
 "http://www.w3.org/Graphics/SVG/1.1/DTD/svg11.dtd">
<!-- Generated by graphviz version 2.43.0 (0)
 -->
<!-- Title: Tree Pages: 1 -->
<svg width="602pt" height="671pt"
 viewBox="0.00 0.00 601.50 671.00" xmlns="http://www.w3.org/2000/svg" xmlns:xlink="http://www.w3.org/1999/xlink">
<g id="graph0" class="graph" transform="scale(1 1) rotate(0) translate(4 667)">
<title>Tree</title>
<polygon fill="white" stroke="transparent" points="-4,4 -4,-667 597.5,-667 597.5,4 -4,4"/>
<!-- 0 -->
<g id="node1" class="node">
<title>0</title>
<path fill="#f7f3fd" stroke="black" d="M307,-663C307,-663 199,-663 199,-663 193,-663 187,-657 187,-651 187,-651 187,-592 187,-592 187,-586 193,-580 199,-580 199,-580 307,-580 307,-580 313,-580 319,-586 319,-592 319,-592 319,-651 319,-651 319,-657 313,-663 307,-663"/>
<text text-anchor="start" x="201.5" y="-647.8" font-family="Helvetica,sans-Serif" font-size="14.00">petal_width ≤ 0.8</text>
<text text-anchor="start" x="217.5" y="-632.8" font-family="Helvetica,sans-Serif" font-size="14.00">gini = 0.665</text>
<text text-anchor="start" x="208" y="-617.8" font-family="Helvetica,sans-Serif" font-size="14.00">samples = 120</text>
<text text-anchor="start" x="195" y="-602.8" font-family="Helvetica,sans-Serif" font-size="14.00">value = [39, 37, 44]</text>
<text text-anchor="start" x="225.5" y="-587.8" font-family="Helvetica,sans-Serif" font-size="14.00">class = e</text>
</g>
<!-- 1 -->
<g id="node2" class="node">
<title>1</title>
<path fill="#e58139" stroke="black" d="M229.5,-536.5C229.5,-536.5 136.5,-536.5 136.5,-536.5 130.5,-536.5 124.5,-530.5 124.5,-524.5 124.5,-524.5 124.5,-480.5 124.5,-480.5 124.5,-474.5 130.5,-468.5 136.5,-468.5 136.5,-468.5 229.5,-468.5 229.5,-468.5 235.5,-468.5 241.5,-474.5 241.5,-480.5 241.5,-480.5 241.5,-524.5 241.5,-524.5 241.5,-530.5 235.5,-536.5 229.5,-536.5"/>
<text text-anchor="start" x="155" y="-521.3" font-family="Helvetica,sans-Serif" font-size="14.00">gini = 0.0</text>
<text text-anchor="start" x="142" y="-506.3" font-family="Helvetica,sans-Serif" font-size="14.00">samples = 39</text>
<text text-anchor="start" x="132.5" y="-491.3" font-family="Helvetica,sans-Serif" font-size="14.00">value = [39, 0, 0]</text>
<text text-anchor="start" x="156" y="-476.3" font-family="Helvetica,sans-Serif" font-size="14.00">class = s</text>
</g>
<!-- 0&#45;&gt;1 -->
<g id="edge1" class="edge">
<title>0&#45;&gt;1</title>
<path fill="none" stroke="black" d="M228.71,-579.91C222.05,-568.76 214.8,-556.66 208.09,-545.44"/>
<polygon fill="black" stroke="black" points="210.98,-543.45 202.84,-536.67 204.97,-547.05 210.98,-543.45"/>
<text text-anchor="middle" x="196.75" y="-557.21" font-family="Helvetica,sans-Serif" font-size="14.00">True</text>
</g>
<!-- 2 -->
<g id="node3" class="node">
<title>2</title>
<path fill="#ebe0fb" stroke="black" d="M374,-544C374,-544 272,-544 272,-544 266,-544 260,-538 260,-532 260,-532 260,-473 260,-473 260,-467 266,-461 272,-461 272,-461 374,-461 374,-461 380,-461 386,-467 386,-473 386,-473 386,-532 386,-532 386,-538 380,-544 374,-544"/>
<text text-anchor="start" x="268" y="-528.8" font-family="Helvetica,sans-Serif" font-size="14.00">petal_width ≤ 1.65</text>
<text text-anchor="start" x="287.5" y="-513.8" font-family="Helvetica,sans-Serif" font-size="14.00">gini = 0.496</text>
<text text-anchor="start" x="282" y="-498.8" font-family="Helvetica,sans-Serif" font-size="14.00">samples = 81</text>
<text text-anchor="start" x="268.5" y="-483.8" font-family="Helvetica,sans-Serif" font-size="14.00">value = [0, 37, 44]</text>
<text text-anchor="start" x="295.5" y="-468.8" font-family="Helvetica,sans-Serif" font-size="14.00">class = e</text>
</g>
<!-- 0&#45;&gt;2 -->
<g id="edge2" class="edge">
<title>0&#45;&gt;2</title>
<path fill="none" stroke="black" d="M277.29,-579.91C282.55,-571.1 288.18,-561.7 293.62,-552.61"/>
<polygon fill="black" stroke="black" points="296.63,-554.4 298.76,-544.02 290.62,-550.81 296.63,-554.4"/>
<text text-anchor="middle" x="304.85" y="-564.57" font-family="Helvetica,sans-Serif" font-size="14.00">False</text>
</g>
<!-- 3 -->
<g id="node4" class="node">
<title>3</title>
<path fill="#4fe88f" stroke="black" d="M302.5,-425C302.5,-425 195.5,-425 195.5,-425 189.5,-425 183.5,-419 183.5,-413 183.5,-413 183.5,-354 183.5,-354 183.5,-348 189.5,-342 195.5,-342 195.5,-342 302.5,-342 302.5,-342 308.5,-342 314.5,-348 314.5,-354 314.5,-354 314.5,-413 314.5,-413 314.5,-419 308.5,-425 302.5,-425"/>
<text text-anchor="start" x="191.5" y="-409.8" font-family="Helvetica,sans-Serif" font-size="14.00">petal_length ≤ 4.95</text>
<text text-anchor="start" x="217" y="-394.8" font-family="Helvetica,sans-Serif" font-size="14.00">gini = 0.18</text>
<text text-anchor="start" x="208" y="-379.8" font-family="Helvetica,sans-Serif" font-size="14.00">samples = 40</text>
<text text-anchor="start" x="198.5" y="-364.8" font-family="Helvetica,sans-Serif" font-size="14.00">value = [0, 36, 4]</text>
<text text-anchor="start" x="221.5" y="-349.8" font-family="Helvetica,sans-Serif" font-size="14.00">class = p</text>
</g>
<!-- 2&#45;&gt;3 -->
<g id="edge3" class="edge">
<title>2&#45;&gt;3</title>
<path fill="none" stroke="black" d="M297.33,-460.91C291.76,-452.1 285.81,-442.7 280.06,-433.61"/>
<polygon fill="black" stroke="black" points="282.93,-431.6 274.63,-425.02 277.02,-435.34 282.93,-431.6"/>
</g>
<!-- 10 -->
<g id="node11" class="node">
<title>10</title>
<path fill="#843ee6" stroke="black" d="M451.5,-425C451.5,-425 344.5,-425 344.5,-425 338.5,-425 332.5,-419 332.5,-413 332.5,-413 332.5,-354 332.5,-354 332.5,-348 338.5,-342 344.5,-342 344.5,-342 451.5,-342 451.5,-342 457.5,-342 463.5,-348 463.5,-354 463.5,-354 463.5,-413 463.5,-413 463.5,-419 457.5,-425 451.5,-425"/>
<text text-anchor="start" x="340.5" y="-409.8" font-family="Helvetica,sans-Serif" font-size="14.00">petal_length ≤ 4.85</text>
<text text-anchor="start" x="362.5" y="-394.8" font-family="Helvetica,sans-Serif" font-size="14.00">gini = 0.048</text>
<text text-anchor="start" x="357" y="-379.8" font-family="Helvetica,sans-Serif" font-size="14.00">samples = 41</text>
<text text-anchor="start" x="347.5" y="-364.8" font-family="Helvetica,sans-Serif" font-size="14.00">value = [0, 1, 40]</text>
<text text-anchor="start" x="370.5" y="-349.8" font-family="Helvetica,sans-Serif" font-size="14.00">class = e</text>
</g>
<!-- 2&#45;&gt;10 -->
<g id="edge10" class="edge">
<title>2&#45;&gt;10</title>
<path fill="none" stroke="black" d="M349.02,-460.91C354.66,-452.1 360.69,-442.7 366.52,-433.61"/>
<polygon fill="black" stroke="black" points="369.57,-435.33 372.03,-425.02 363.68,-431.55 369.57,-435.33"/>
</g>
<!-- 4 -->
<g id="node5" class="node">
<title>4</title>
<path fill="#39e581" stroke="black" d="M152.5,-298.5C152.5,-298.5 59.5,-298.5 59.5,-298.5 53.5,-298.5 47.5,-292.5 47.5,-286.5 47.5,-286.5 47.5,-242.5 47.5,-242.5 47.5,-236.5 53.5,-230.5 59.5,-230.5 59.5,-230.5 152.5,-230.5 152.5,-230.5 158.5,-230.5 164.5,-236.5 164.5,-242.5 164.5,-242.5 164.5,-286.5 164.5,-286.5 164.5,-292.5 158.5,-298.5 152.5,-298.5"/>
<text text-anchor="start" x="78" y="-283.3" font-family="Helvetica,sans-Serif" font-size="14.00">gini = 0.0</text>
<text text-anchor="start" x="65" y="-268.3" font-family="Helvetica,sans-Serif" font-size="14.00">samples = 35</text>
<text text-anchor="start" x="55.5" y="-253.3" font-family="Helvetica,sans-Serif" font-size="14.00">value = [0, 35, 0]</text>
<text text-anchor="start" x="78.5" y="-238.3" font-family="Helvetica,sans-Serif" font-size="14.00">class = p</text>
</g>
<!-- 3&#45;&gt;4 -->
<g id="edge4" class="edge">
<title>3&#45;&gt;4</title>
<path fill="none" stroke="black" d="M199.39,-341.91C184.82,-329.99 168.91,-316.98 154.42,-305.12"/>
<polygon fill="black" stroke="black" points="156.49,-302.29 146.54,-298.67 152.06,-307.71 156.49,-302.29"/>
</g>
<!-- 5 -->
<g id="node6" class="node">
<title>5</title>
<path fill="#a06aec" stroke="black" d="M305,-306C305,-306 195,-306 195,-306 189,-306 183,-300 183,-294 183,-294 183,-235 183,-235 183,-229 189,-223 195,-223 195,-223 305,-223 305,-223 311,-223 317,-229 317,-235 317,-235 317,-294 317,-294 317,-300 311,-306 305,-306"/>
<text text-anchor="start" x="191" y="-290.8" font-family="Helvetica,sans-Serif" font-size="14.00">sepal_length ≤ 6.05</text>
<text text-anchor="start" x="218" y="-275.8" font-family="Helvetica,sans-Serif" font-size="14.00">gini = 0.32</text>
<text text-anchor="start" x="212.5" y="-260.8" font-family="Helvetica,sans-Serif" font-size="14.00">samples = 5</text>
<text text-anchor="start" x="203" y="-245.8" font-family="Helvetica,sans-Serif" font-size="14.00">value = [0, 1, 4]</text>
<text text-anchor="start" x="222.5" y="-230.8" font-family="Helvetica,sans-Serif" font-size="14.00">class = e</text>
</g>
<!-- 3&#45;&gt;5 -->
<g id="edge5" class="edge">
<title>3&#45;&gt;5</title>
<path fill="none" stroke="black" d="M249.35,-341.91C249.42,-333.65 249.49,-324.86 249.57,-316.3"/>
<polygon fill="black" stroke="black" points="253.07,-316.05 249.65,-306.02 246.07,-315.99 253.07,-316.05"/>
</g>
<!-- 6 -->
<g id="node7" class="node">
<title>6</title>
<path fill="#ffffff" stroke="black" d="M170,-187C170,-187 68,-187 68,-187 62,-187 56,-181 56,-175 56,-175 56,-116 56,-116 56,-110 62,-104 68,-104 68,-104 170,-104 170,-104 176,-104 182,-110 182,-116 182,-116 182,-175 182,-175 182,-181 176,-187 170,-187"/>
<text text-anchor="start" x="64" y="-171.8" font-family="Helvetica,sans-Serif" font-size="14.00">petal_width ≤ 1.55</text>
<text text-anchor="start" x="91" y="-156.8" font-family="Helvetica,sans-Serif" font-size="14.00">gini = 0.5</text>
<text text-anchor="start" x="81.5" y="-141.8" font-family="Helvetica,sans-Serif" font-size="14.00">samples = 2</text>
<text text-anchor="start" x="72" y="-126.8" font-family="Helvetica,sans-Serif" font-size="14.00">value = [0, 1, 1]</text>
<text text-anchor="start" x="91.5" y="-111.8" font-family="Helvetica,sans-Serif" font-size="14.00">class = p</text>
</g>
<!-- 5&#45;&gt;6 -->
<g id="edge6" class="edge">
<title>5&#45;&gt;6</title>
<path fill="none" stroke="black" d="M204.55,-222.91C194.08,-213.56 182.86,-203.54 172.1,-193.93"/>
<polygon fill="black" stroke="black" points="174.16,-191.07 164.37,-187.02 169.5,-196.29 174.16,-191.07"/>
</g>
<!-- 9 -->
<g id="node10" class="node">
<title>9</title>
<path fill="#8139e5" stroke="black" d="M298,-179.5C298,-179.5 212,-179.5 212,-179.5 206,-179.5 200,-173.5 200,-167.5 200,-167.5 200,-123.5 200,-123.5 200,-117.5 206,-111.5 212,-111.5 212,-111.5 298,-111.5 298,-111.5 304,-111.5 310,-117.5 310,-123.5 310,-123.5 310,-167.5 310,-167.5 310,-173.5 304,-179.5 298,-179.5"/>
<text text-anchor="start" x="227" y="-164.3" font-family="Helvetica,sans-Serif" font-size="14.00">gini = 0.0</text>
<text text-anchor="start" x="217.5" y="-149.3" font-family="Helvetica,sans-Serif" font-size="14.00">samples = 3</text>
<text text-anchor="start" x="208" y="-134.3" font-family="Helvetica,sans-Serif" font-size="14.00">value = [0, 0, 3]</text>
<text text-anchor="start" x="227.5" y="-119.3" font-family="Helvetica,sans-Serif" font-size="14.00">class = e</text>
</g>
<!-- 5&#45;&gt;9 -->
<g id="edge9" class="edge">
<title>5&#45;&gt;9</title>
<path fill="none" stroke="black" d="M251.73,-222.91C252.19,-212.2 252.69,-200.62 253.15,-189.78"/>
<polygon fill="black" stroke="black" points="256.65,-189.81 253.58,-179.67 249.66,-189.51 256.65,-189.81"/>
</g>
<!-- 7 -->
<g id="node8" class="node">
<title>7</title>
<path fill="#8139e5" stroke="black" d="M98,-68C98,-68 12,-68 12,-68 6,-68 0,-62 0,-56 0,-56 0,-12 0,-12 0,-6 6,0 12,0 12,0 98,0 98,0 104,0 110,-6 110,-12 110,-12 110,-56 110,-56 110,-62 104,-68 98,-68"/>
<text text-anchor="start" x="27" y="-52.8" font-family="Helvetica,sans-Serif" font-size="14.00">gini = 0.0</text>
<text text-anchor="start" x="17.5" y="-37.8" font-family="Helvetica,sans-Serif" font-size="14.00">samples = 1</text>
<text text-anchor="start" x="8" y="-22.8" font-family="Helvetica,sans-Serif" font-size="14.00">value = [0, 0, 1]</text>
<text text-anchor="start" x="27.5" y="-7.8" font-family="Helvetica,sans-Serif" font-size="14.00">class = e</text>
</g>
<!-- 6&#45;&gt;7 -->
<g id="edge7" class="edge">
<title>6&#45;&gt;7</title>
<path fill="none" stroke="black" d="M95.17,-103.73C90.1,-95.06 84.75,-85.9 79.65,-77.18"/>
<polygon fill="black" stroke="black" points="82.53,-75.17 74.46,-68.3 76.49,-78.7 82.53,-75.17"/>
</g>
<!-- 8 -->
<g id="node9" class="node">
<title>8</title>
<path fill="#39e581" stroke="black" d="M226,-68C226,-68 140,-68 140,-68 134,-68 128,-62 128,-56 128,-56 128,-12 128,-12 128,-6 134,0 140,0 140,0 226,0 226,0 232,0 238,-6 238,-12 238,-12 238,-56 238,-56 238,-62 232,-68 226,-68"/>
<text text-anchor="start" x="155" y="-52.8" font-family="Helvetica,sans-Serif" font-size="14.00">gini = 0.0</text>
<text text-anchor="start" x="145.5" y="-37.8" font-family="Helvetica,sans-Serif" font-size="14.00">samples = 1</text>
<text text-anchor="start" x="136" y="-22.8" font-family="Helvetica,sans-Serif" font-size="14.00">value = [0, 1, 0]</text>
<text text-anchor="start" x="155.5" y="-7.8" font-family="Helvetica,sans-Serif" font-size="14.00">class = p</text>
</g>
<!-- 6&#45;&gt;8 -->
<g id="edge8" class="edge">
<title>6&#45;&gt;8</title>
<path fill="none" stroke="black" d="M142.83,-103.73C147.9,-95.06 153.25,-85.9 158.35,-77.18"/>
<polygon fill="black" stroke="black" points="161.51,-78.7 163.54,-68.3 155.47,-75.17 161.51,-78.7"/>
</g>
<!-- 11 -->
<g id="node12" class="node">
<title>11</title>
<path fill="#ab7bee" stroke="black" d="M446,-306C446,-306 348,-306 348,-306 342,-306 336,-300 336,-294 336,-294 336,-235 336,-235 336,-229 342,-223 348,-223 348,-223 446,-223 446,-223 452,-223 458,-229 458,-235 458,-235 458,-294 458,-294 458,-300 452,-306 446,-306"/>
<text text-anchor="start" x="344" y="-290.8" font-family="Helvetica,sans-Serif" font-size="14.00">sepal_width ≤ 3.1</text>
<text text-anchor="start" x="361.5" y="-275.8" font-family="Helvetica,sans-Serif" font-size="14.00">gini = 0.375</text>
<text text-anchor="start" x="359.5" y="-260.8" font-family="Helvetica,sans-Serif" font-size="14.00">samples = 4</text>
<text text-anchor="start" x="350" y="-245.8" font-family="Helvetica,sans-Serif" font-size="14.00">value = [0, 1, 3]</text>
<text text-anchor="start" x="369.5" y="-230.8" font-family="Helvetica,sans-Serif" font-size="14.00">class = e</text>
</g>
<!-- 10&#45;&gt;11 -->
<g id="edge11" class="edge">
<title>10&#45;&gt;11</title>
<path fill="none" stroke="black" d="M397.65,-341.91C397.58,-333.65 397.51,-324.86 397.43,-316.3"/>
<polygon fill="black" stroke="black" points="400.93,-315.99 397.35,-306.02 393.93,-316.05 400.93,-315.99"/>
</g>
<!-- 14 -->
<g id="node15" class="node">
<title>14</title>
<path fill="#8139e5" stroke="black" d="M581.5,-298.5C581.5,-298.5 488.5,-298.5 488.5,-298.5 482.5,-298.5 476.5,-292.5 476.5,-286.5 476.5,-286.5 476.5,-242.5 476.5,-242.5 476.5,-236.5 482.5,-230.5 488.5,-230.5 488.5,-230.5 581.5,-230.5 581.5,-230.5 587.5,-230.5 593.5,-236.5 593.5,-242.5 593.5,-242.5 593.5,-286.5 593.5,-286.5 593.5,-292.5 587.5,-298.5 581.5,-298.5"/>
<text text-anchor="start" x="507" y="-283.3" font-family="Helvetica,sans-Serif" font-size="14.00">gini = 0.0</text>
<text text-anchor="start" x="494" y="-268.3" font-family="Helvetica,sans-Serif" font-size="14.00">samples = 37</text>
<text text-anchor="start" x="484.5" y="-253.3" font-family="Helvetica,sans-Serif" font-size="14.00">value = [0, 0, 37]</text>
<text text-anchor="start" x="507.5" y="-238.3" font-family="Helvetica,sans-Serif" font-size="14.00">class = e</text>
</g>
<!-- 10&#45;&gt;14 -->
<g id="edge14" class="edge">
<title>10&#45;&gt;14</title>
<path fill="none" stroke="black" d="M445.53,-341.91C459.36,-330.1 474.44,-317.22 488.22,-305.45"/>
<polygon fill="black" stroke="black" points="490.83,-307.82 496.16,-298.67 486.29,-302.5 490.83,-307.82"/>
</g>
<!-- 12 -->
<g id="node13" class="node">
<title>12</title>
<path fill="#8139e5" stroke="black" d="M436,-179.5C436,-179.5 350,-179.5 350,-179.5 344,-179.5 338,-173.5 338,-167.5 338,-167.5 338,-123.5 338,-123.5 338,-117.5 344,-111.5 350,-111.5 350,-111.5 436,-111.5 436,-111.5 442,-111.5 448,-117.5 448,-123.5 448,-123.5 448,-167.5 448,-167.5 448,-173.5 442,-179.5 436,-179.5"/>
<text text-anchor="start" x="365" y="-164.3" font-family="Helvetica,sans-Serif" font-size="14.00">gini = 0.0</text>
<text text-anchor="start" x="355.5" y="-149.3" font-family="Helvetica,sans-Serif" font-size="14.00">samples = 3</text>
<text text-anchor="start" x="346" y="-134.3" font-family="Helvetica,sans-Serif" font-size="14.00">value = [0, 0, 3]</text>
<text text-anchor="start" x="365.5" y="-119.3" font-family="Helvetica,sans-Serif" font-size="14.00">class = e</text>
</g>
<!-- 11&#45;&gt;12 -->
<g id="edge12" class="edge">
<title>11&#45;&gt;12</title>
<path fill="none" stroke="black" d="M395.61,-222.91C395.25,-212.2 394.85,-200.62 394.48,-189.78"/>
<polygon fill="black" stroke="black" points="397.97,-189.54 394.13,-179.67 390.98,-189.78 397.97,-189.54"/>
</g>
<!-- 13 -->
<g id="node14" class="node">
<title>13</title>
<path fill="#39e581" stroke="black" d="M564,-179.5C564,-179.5 478,-179.5 478,-179.5 472,-179.5 466,-173.5 466,-167.5 466,-167.5 466,-123.5 466,-123.5 466,-117.5 472,-111.5 478,-111.5 478,-111.5 564,-111.5 564,-111.5 570,-111.5 576,-117.5 576,-123.5 576,-123.5 576,-167.5 576,-167.5 576,-173.5 570,-179.5 564,-179.5"/>
<text text-anchor="start" x="493" y="-164.3" font-family="Helvetica,sans-Serif" font-size="14.00">gini = 0.0</text>
<text text-anchor="start" x="483.5" y="-149.3" font-family="Helvetica,sans-Serif" font-size="14.00">samples = 1</text>
<text text-anchor="start" x="474" y="-134.3" font-family="Helvetica,sans-Serif" font-size="14.00">value = [0, 1, 0]</text>
<text text-anchor="start" x="493.5" y="-119.3" font-family="Helvetica,sans-Serif" font-size="14.00">class = p</text>
</g>
<!-- 11&#45;&gt;13 -->
<g id="edge13" class="edge">
<title>11&#45;&gt;13</title>
<path fill="none" stroke="black" d="M440.02,-222.91C452.42,-211.21 465.93,-198.46 478.31,-186.78"/>
<polygon fill="black" stroke="black" points="480.98,-189.08 485.85,-179.67 476.17,-183.98 480.98,-189.08"/>
</g>
</g>
</svg>